/* XPM */
static char *c2a57015b83f45e2f51d985e271550484GWpndkF4vpInvAj[] = {
/* columns rows colors chars-per-pixel */
"59 65 14 1 ",
"  c None",
". c #2B211D",
"X c #241527",
"o c #202E37",
"O c #411D31",
"+ c #752438",
"@ c #52463F",
"# c #394A50",
"$ c #215B63",
"% c #577277",
"& c #8A7762",
"* c #36A48E",
"= c #C2A180",
"- c #89D4AE",
/* pixels */
"                                                           ",
"                                                           ",
"                                                           ",
"                                                           ",
"                                                           ",
"                                                           ",
"                                                           ",
"                                                           ",
"                                                           ",
"                                                           ",
"                                                           ",
"                                                           ",
"                                                           ",
"                                                           ",
"                                                           ",
"                                                           ",
"                              @&&==                        ",
"                             @&&&&&=                       ",
"                             @&&&&&&=                      ",
"                             @@..=&&.                      ",
"                             @@.*.=.*                      ",
"                             @@@&&.&@                      ",
"                          ###  @@@&@                       ",
"                         #%##o ..@@@                       ",
"                        #%##oo&@@                          ",
"                        o##oo..&=&&&=                      ",
"                         ooo@&&.=..&&@                     ",
"                        &&.@...&=&@@.@                     ",
"                       &@@ .@&&=&.....@                    ",
"            #%%       &&@  @...=.&@  .@                    ",
"            -o##%   &&@@   .@@&&...  .@@                   ",
"            - oo#&&&@@      ....&@    .@                   ",
"            *   oo@@o       ..        ..                   ",
"           *      oo     XX... X       .@                  ",
"           $             XOXXXX+       .@                  ",
"           $              XXO+XO        .@                 ",
"           -              &XO+X.         .                 ",
"         -$*$-            &XX+X.@                          ",
"         $*$*$           && XOX.@@                         ",
"        -*-*-*-          &@ XO  .@@                        ",
"         $*$*$          ==@  O   .&&                       ",
"         -$*$-          ==   X    &&                       ",
"           -            =@        .&                       ",
"                       &@         ..                       ",
"                       &@         .@                       ",
"                       &@        .@                        ",
"                      ==         ..                        ",
"                     =&@         ..@                       ",
"                                                           ",
"                                                           ",
"                                                           ",
"                                                           ",
"                                                           ",
"                                                           ",
"                                                           ",
"                                                           ",
"                                                           ",
"                                                           ",
"                                                           ",
"                                                           ",
"                                                           ",
"                                                           ",
"                                                           ",
"                                                           ",
"                                                           "
};
