/* XPM */
static char *a57efede32c243b6bb4009db4a3e1bca59kXaSZn178Nup3g[] = {
/* columns rows colors chars-per-pixel */
"17 17 10 1 ",
"  c #1D2B53",
". c black",
"X c #00E756",
"o c #008751",
"O c #FFFF27",
"+ c #7E2553",
"@ c #AB5236",
"# c #FF004D",
"$ c #FFA300",
"% c white",
/* pixels */
"      ...  .     ",
"      .Xo..o.    ",
"       .XOXX.    ",
"      .+oX..     ",
"    ..+oX+o...   ",
"   .@##+@+++@+.  ",
"  .@##@##@#+#@+. ",
"  .##OO#####@@@. ",
" .@##OO$#####@@+.",
" .@###$######@@+.",
" .@##########@@+.",
"  .#######O$@@@. ",
"  .+######$$@@+. ",
"   .+#####@@@+.  ",
"    ..+@@@@+..   ",
"      ......     ",
"                 "
};
