/* XPM */
static char *_59f98a3267b4788b369dfb658a0ac32hSzSLDwGDNTUSmy3[] = {
/* columns rows colors chars-per-pixel */
"32 29 5 1 ",
"  c #C0CBDC",
". c #8B9BB4",
"X c #5A6988",
"o c #3A4466",
"O c white",
/* pixels */
" ..............X ..............X",
" ..............X ..............X",
" ..............X ..............X",
"oXXXXXXXXXXXXXoooXXXXXXXXXXXXXoo",
"    .o.             .o.         ",
".....X ..............X .........",
".....X ..............X .........",
".....X ..............X .........",
"XXXXXoXoooooooooXXXXXoXooooooooo",
"        .o.             .o.     ",
".........X ..............X .....",
".........X ..............X .....",
".........X ..............X .....",
"oooooooooooooooooooooooooooooooo",
".             .o.             .o",
" ..............X ..............X",
" ..............X ..............X",
" ..............X ..............X",
"oXXXXXXXXXXXXXoooXXXXXXXXXXXXXoo",
"    .o.             .o.         ",
".....X ..............X .........",
".....X ..............X .........",
".....X ..............X .........",
"XXXXXoXoooooooooXXXXXoXooooooooo",
"        .o.             .o.     ",
".........X ..............X .....",
".........X ..............X .....",
".........X ..............X .....",
"oooooooooooooooooooooooooooooooo"
};
